<svg xmlns="http://www.w3.org/2000/svg" width="54.5" height="67.6" viewBox="0 0 54.5 67.6"><g fill="#FF6138"><path d="M27.2 2.5C16 2.5 2.8 22.1 2.8 38.6c0 16.1 9.6 26.5 24.5 26.5s24.5-10.4 24.5-26.5C51.7 21.7 38.7 2.5 27.2 2.5zm0 4c7.8 0 18.5 14 20.2 28.3h-4.9V30c0-1.1-.9-2-2-2s-2 .9-2 2v4.8h-4.8V30c0-1.1-.9-2-2-2s-2 .9-2 2v4.8h-4.8V30c0-1.1-.9-2-2-2s-2 .9-2 2v4.8H16V30c0-1.1-.9-2-2-2s-2 .9-2 2v4.8H7C8.8 20.7 19.6 6.5 27.2 6.5zm0 54.6c-9.9 0-20.4-5.9-20.5-22.3H47.5c.1 16.5-10.4 22.3-20.3 22.3z"/><path d="M27.2 40.5c-1.5 0-2 .9-4 5.4-2.3 5.1-2.4 5.6-2 6.6.6 1.5 2.1 1.5 5.1 1.5h1.2c3.9 0 5.1 0 5.8-1.4.5-1.1.3-2.1-1.7-6.4-2.4-4.8-2.9-5.7-4.4-5.7zm.2 9.5h-1.7c.3-.6.6-1.4 1.1-2.5.1-.2.2-.5.4-.9.2.4.4.8.6 1.3.4.9.7 1.6 1 2.1h-1.4z"/></g></svg>