<svg xmlns="http://www.w3.org/2000/svg" width="66.9" height="56.3" viewBox="0 0 66.9 56.3"><g fill="#00A388"><path d="M33.4 2.5c-17 0-30.8 13.8-30.8 30.8 0 7.1 2.4 13.9 6.9 19.4.7.9 2 1 2.8.3s1-2 .3-2.8c-1.1-1.4-2.1-2.9-2.9-4.5l6.4-2.6c1-.4 1.5-1.6 1.1-2.6-.4-1-1.6-1.5-2.6-1.1L8.1 42c-.7-2-1.2-4.1-1.3-6.3h6.8c1.1 0 2-.9 2-2s-.9-2-2-2H6.7c.1-2.3.5-4.4 1.2-6.5l6.2 2.6c.3.1.5.2.8.2.8 0 1.5-.5 1.8-1.2.4-1-.1-2.2-1.1-2.6l-6.2-2.6c1-2 2.2-3.8 3.6-5.5l4.6 4.6c.4.4.9.6 1.4.6s1-.2 1.4-.6c.8-.8.8-2 0-2.8l-4.7-4.7c1.7-1.5 3.5-2.7 5.5-3.8l2.5 6c.3.8 1.1 1.2 1.9 1.2.3 0 .5 0 .8-.2.2-.1.4-.2.5-.3-.2 1.7-.4 4.3-.4 8.2 0 4.7.1 10.5.5 12.2.7 3.1 3.5 5.4 6.8 5.4.5 0 1-.1 1.5-.2 3.8-.8 6.2-4.5 5.4-8.2-.3-1.7-2.6-7-4.5-11.2-1.8-4-3-6.4-3.9-7.8.3.3.8.4 1.2.4 1.1 0 2-.9 2-2V6.6c2.3.2 4.5.6 6.6 1.3l-2.5 6c-.4 1 .1 2.2 1.1 2.6.3.1.5.2.8.2.8 0 1.5-.5 1.8-1.2l2.5-6c2 1 3.8 2.3 5.4 3.7l-4.7 4.7c-.8.8-.8 2 0 2.8.4.4.9.6 1.4.6s1-.2 1.4-.6l4.6-4.6c1.4 1.7 2.7 3.6 3.6 5.6l-6.2 2.6c-1 .4-1.5 1.6-1.1 2.6.3.8 1.1 1.2 1.9 1.2.3 0 .5 0 .8-.2l6.2-2.5c.6 2 1 4.2 1.2 6.4h-6.8c-1.1 0-2 .9-2 2s.9 2 2 2h6.8c-.2 2.2-.7 4.3-1.4 6.4l-6.4-2.7c-1-.4-2.2.1-2.6 1.1-.4 1 .1 2.2 1.1 2.6l6.3 2.6c-.9 1.7-1.9 3.2-3.1 4.7-.7.8-.6 2.1.3 2.8.4.3.8.5 1.3.5.6 0 1.1-.2 1.5-.7 4.6-5.5 7.1-12.5 7.1-19.7-.1-17.1-14-30.9-31-30.9zm3.4 32c.3 1.5-.7 3.1-2.3 3.4-1.6.3-3.2-.7-3.5-2.2-.3-1.7-.5-10.1-.3-15.6 2.3 5 5.7 12.8 6.1 14.4zm-7.3-22.1h-.4c-.7.1-1.2.4-1.6 1.4l-2.5-6c2.1-.7 4.2-1.1 6.5-1.3V13c0 .2 0 .4.1.5-1-1.1-1.5-1.1-2.1-1.1z"/><ellipse cx="33.5" cy="33.8" transform="rotate(78.1 33.55 33.795)" rx="1.3" ry="1.3"/></g></svg>