<svg xmlns="http://www.w3.org/2000/svg" width="71" height="62.6" viewBox="0 0 71 62.6"><g fill="#FF6138"><path d="M68.5 7.4c-1.4-2.8-4.9-5.6-8.4-5.6-.4 0-.9 0-1.3.1-1 .2-3.7.8-18.8 18h-.1c-1.2 0-1.9 0-20 19-8.8 9-17.4 18.3-17.5 18.4-.5.5-.7 1.3-.4 2 .2.7.8 1.2 1.5 1.3 1 .2 2.1.3 3.3.3 9.5 0 21-7.4 29-13.6 5.4-4.2 15.6-13.3 15.9-15.7.1-.9-.3-1.9-1.3-3.2l10.8-13.3h.5c2 0 4.8-.5 6.5-2.7 1.1-1.3 1.2-3.2.3-5zM8.3 56.8C20 44.3 36.3 27.2 40 24.1c1.9 1.2 6.2 5.2 7.4 7C44 35.6 22.7 55.4 8.3 56.8zM65.1 10c-.8 1-2.6 1.1-3.4 1.1-.6 0-1.1-.1-1.1-.1-.7-.1-1.4.2-1.9.7L47.9 25c-1.3-1.3-2.8-2.5-4.2-3.5C56.6 7.1 59.4 5.9 59.6 5.8c1.3-.3 3.5.9 4.7 2.6.8.9.8 1.5.8 1.6z"/><circle cx="60.7" cy="8.7" r="1.3"/></g></svg>