<svg xmlns="http://www.w3.org/2000/svg" width="82.5" height="61.3" viewBox="0 0 82.5 61.3"><g fill="#6D6E71"><path d="M42.4 5.8c-13.3 0-24.2 11.5-24.2 25.6C18.2 45.5 29 57 42.4 57c13.3 0 24.1-11.5 24.1-25.6 0-14.2-10.8-25.6-24.1-25.6zm0 47.1c-11.1 0-20.2-9.7-20.2-21.6 0-11.9 9-21.6 20.2-21.6 11.1 0 20.1 9.7 20.1 21.6 0 11.9-9 21.6-20.1 21.6z"/><path d="M42.4 13.1c-9.4 0-17.1 8.2-17.1 18.2S33 49.5 42.4 49.5s17.1-8.2 17.1-18.2-7.7-18.2-17.1-18.2zm0 32.4c-7.2 0-13.1-6.4-13.1-14.2 0-7.8 5.9-14.2 13.1-14.2 7.2 0 13.1 6.4 13.1 14.2 0 7.9-5.9 14.2-13.1 14.2zM80.1 30.3l.1-25c0-.6-.3-1.2-.8-1.6-.5-.4-1.1-.5-1.8-.3-.3.1-7.2 2.2-7.2 14.5 0 5.8.4 10.1 1 12.4-.4.6-.6 1.3-.6 2.1v21.8c0 2.1 1.7 3.8 3.7 3.8h2.3c2.1 0 3.7-1.7 3.7-3.8V32.3c.2-.7 0-1.4-.4-2zM76.2 9.7l-.1 18.7h-.9c-.3-1.3-.7-4.4-.7-10.6 0-3.9.8-6.5 1.7-8.1zm.5 44.3H75V32.5h1.7V54zM14.1 3.4c-1.1 0-2 .9-2 2v7.3H11V5.4c0-1.1-.9-2-2-2s-2 .9-2 2v7.3H5.8V5.4c0-1.1-.9-2-2-2s-2 .9-2 2v9.3c0 .1 0 .3.1.4v.1c0 .1.1.2.1.3v.1L5.2 21c-.7.7-1.1 1.7-1.1 2.8v30.4c0 2.1 1.7 3.8 3.7 3.8h2.3c2.1 0 3.7-1.7 3.7-3.8V23.7c0-1.1-.5-2.1-1.2-2.8l3.1-5.2v-.1c.1-.1.1-.2.1-.3v-.1c0-.1.1-.3.1-.4V5.4c.2-1.1-.7-2-1.8-2zm-3.6 13.3l-1.6 2.7-1.6-2.7h3.2zM8.1 54V24.3c.3.1.5.2.8.2.3 0 .6-.1.9-.2V54H8.1z"/></g></svg>