<?xml version="1.0" encoding="UTF-8" standalone="no"?>
<svg width="57px" height="58px" viewBox="0 0 57 58" version="1.1" xmlns="http://www.w3.org/2000/svg" xmlns:xlink="http://www.w3.org/1999/xlink">
    <!-- Generator: Sketch 47.1 (45422) - http://www.bohemiancoding.com/sketch -->
    <title>umami-search</title>
    <desc>Created with Sketch.</desc>
    <defs></defs>
    <g id="Page-1" stroke="none" stroke-width="1" fill="none" fill-rule="evenodd">
        <g id="umami-search" fill="#FF6138">
            <g id="Group-3" transform="translate(-2.000000, 0.000000)">
                <path d="M37.6568243,42.7481458 C25.9909844,42.7481458 16.5339527,33.291114 16.5339527,21.6252742 C16.5339527,9.95943433 25.9909844,0.502402579 37.6568243,0.502402579 C49.3226642,0.502402579 58.7796959,9.95943433 58.7796959,21.6252742 C58.7796959,33.291114 49.3226642,42.7481458 37.6568243,42.7481458 Z M37.6568243,38.5235715 C46.9894962,38.5235715 54.5551216,30.9579461 54.5551216,21.6252742 C54.5551216,12.2926023 46.9894962,4.7269769 37.6568243,4.7269769 C28.3241524,4.7269769 20.758527,12.2926023 20.758527,21.6252742 C20.758527,30.9579461 28.3241524,38.5235715 37.6568243,38.5235715 Z" id="Combined-Shape"></path>
                <path d="M13.8935938,29.2656331 L16.3188124,29.2656331 L16.3188124,29.2656331 C19.0802361,29.2656331 21.3188124,31.5042094 21.3188124,34.2656331 L21.3188124,54.0861577 C21.3188124,56.8475815 19.0802361,59.0861577 16.3188124,59.0861577 L13.8935938,59.0861577 L13.8935938,59.0861577 C11.13217,59.0861577 8.89359377,56.8475815 8.89359377,54.0861577 L8.89359377,34.2656331 L8.89359377,34.2656331 C8.89359377,31.5042094 11.13217,29.2656331 13.8935938,29.2656331 L13.8935938,29.2656331 Z M13.0353333,32.9022825 L13.0353333,54.7221785 L17.1770728,54.7221785 L17.1770728,32.9022825 L13.0353333,32.9022825 Z" id="Combined-Shape" transform="translate(15.106203, 44.175895) rotate(45.000000) translate(-15.106203, -44.175895) "></path>
                <circle id="Oval-3" cx="30.2992173" cy="12.8992177" r="2.89921767"></circle>
                <circle id="Oval-3" cx="36.1566958" cy="10.1566958" r="1.65669581"></circle>
                <circle id="Oval-3" cx="26.655" cy="18.155" r="1.65499997"></circle>
            </g>
        </g>
    </g>
</svg>