<svg id="Layer_1" data-name="Layer 1" xmlns="http://www.w3.org/2000/svg" viewBox="0 0 600 600">
  <defs>
    <style>
      .cls-1{fill:#79bd8f;}
    </style>
  </defs>
  <path class="cls-1" d="M521.49 304.73h-31c-2.61-35.8-2.61-108.33-2.61-108.33a9.22 9.22 0 0 0-9-9.47s-68.52-10.39-165.62-11.25A38.71 38.71 0 0 0 324.38 160c6.93-18.1-.25-37.67-16-43.72s-34.2 3.72-41.14 21.82c-5.39 14.08-2.22 29 6.87 37.82-88.21 1.67-148.7 11.05-148.7 11.05a7.29 7.29 0 0 0-6.92 5.45 8 8 0 0 0-.63 3.11s0 69.44-2.55 109.25H78.2a19.13 19.13 0 0 0-19.13 19.13v136.54a9.82 9.82 0 0 0 9.82 9.82h458a14 14 0 0 0 14-14v-132.1a19.44 19.44 0 0 0-19.4-19.44zM290.56 147a13.59 13.59 0 0 1 4.05-5.78c1.74-1.41 3.67-2.07 4.8-1.64s1.77 2 2 2.6A12.86 12.86 0 0 1 301 151a13.58 13.58 0 0 1-4.05 5.78c-1.74 1.41-3.67 2.07-4.8 1.64-1.81-.7-3.83-5.58-1.59-11.42zm10 53.63A1275.25 1275.25 0 0 1 462.94 210c.09 16.1.27 68.27 1.11 94l-.12.13a4.46 4.46 0 0 1-1.68.63H444c-7.69-4.12-3.58-21.66-4.26-31.84-.45-6.72-.32-26.05-9-28.35-8.19-2.16-10.72 20.65-11.25 23.77-2.32 13.61 4.5 36.4-12 36.43-14.77 0-10.57-14.09-11.52-27-.75-10.26 3.22-65.74-19.47-57.53-13.63 4.93-14.44 40.44-17 52.51-1.67 7.91-3.31 28.15-10 32h-17.91c-13.16-10.18-1.89-96.76-31.46-89.86-18.51 4.32-12 56.07-14 68.82-1.72 10.61-2.79 18-12.22 21h-11c-1.92-1.33-3.21-3.64-4.68-6.67-3.77-7.82 2.17-51.12-12.37-48.65-7.07 1.2-7.8 22.39-8.38 27-1.38 11 2 27.66-7.8 28.29h-2.57c-17.1-.94-16.51-23.66-22.52-45.32-3.15-11.33-9.42-22.87-16.67-23.54-10.85-1-13.91 20.35-16.67 32.2-2.54 11 1.57 30.46-8 33.8-8.2 2.86-16.6 2.86-20.89 2.86.5-27.3.7-82.05.78-95-.04.1 63.14-8.47 157.47-9.05zM135.88 376.12c-5.88-25.23-15.3-18.92-19.45 3.88-2.23 12.28-2.51 54.66-12.69 61.22a26.5 26.5 0 0 1-12 4h-5.37a18.81 18.81 0 0 1-2.13-.3s0-15.41-.18-35.8v-79.39h431.87v115.55s-10.37-.19-15.56-2.79c-10-5-25.52-26.95-30.76-43.89-3.84-12.41-20.25-51.06-32.77-26.43-5.95 11.71-8.94 89.28-28.88 68.24-8.13-8.58-7.39-37-10.09-48.6-2.41-10.4-4.1-25.33-9-34.6-5.89-11.05-18-17.54-25.63-2.88-8 15.3 2.91 83.91-14.91 90.95h-3c-11.35-5.22-6.1-74.37-19.12-79.93-19-8.12-2.22 84.77-29.3 66.4-26.6-18.05-9.81-61-27.26-83.87-20.77-27.28-29.46 40.28-31.91 54.33-2.09 12-5.13 42.11-18.63 33.5-10.07-6.42-15.74-43.81-18.44-55.23-2.73-11.59-4.85-44-22.35-39.26-11.88 3.2-12.54 14.66-13.35 25.58-1.59 21.18-1.78 44.46-6.24 65.15-3.74 17.39-14.11 12.42-16.52-.59"/>
</svg>
