<svg id="Layer_1" data-name="Layer 1" xmlns="http://www.w3.org/2000/svg" viewBox="0 0 600 600">
  <defs>
    <style>
      .cls-1{fill:none;}.cls-2{fill:#e84265;}
    </style>
  </defs>
  <path class="cls-1" d="M141.71 335.22h282.68v136.2H141.71z"/>
  <path class="cls-1" d="M491.07 255.31a68.63 68.63 0 0 1-3.43 25.56c-7.66-4.16-14.74-9.42-22.16-14.07 4.68-26.27-15.49-49.73-28-61.44-24-22.4-58.49-39.27-97.61-47.83 18.9 20.87 30.91 45.53 33.64 71.24H348.3c-2.51-18.15-11-36.13-25.12-52.37-22.23-25.64-55.15-43.65-92.69-50.71a181 181 0 0 0-33.37-3.15c-31 0-60.45 8.39-83 23.62-21.72 14.71-35.47 34.47-39.73 57.14-5 26.51 3.73 54.32 24.53 78.32A144.91 144.91 0 0 0 134 310.78a22.48 22.48 0 0 1 5.13-.6h24.73c-27.39-29.34-41-66.47-34.05-103.55q.89-4.74 2.2-9.31s8.83-2.28 9.14 0c9.13 66 37.76 92.26 37.76 92.26a140.34 140.34 0 0 0 22.36 20.61h16.52c3.4-7.43 6.38-16.41 8.87-31.77l13.44.41a150.66 150.66 0 0 0 3.36 31.36h51.39a144.42 144.42 0 0 0 2-25.62l11.13-4a136.16 136.16 0 0 0 11 29.59h46.33a134.67 134.67 0 0 0 14-30.11l19.4 6.25a141.72 141.72 0 0 0-5.37 23.86H427a22.43 22.43 0 0 1 22.43 22.43V348a159 159 0 0 0 20 1.32c31.94 0 56.34-10.56 62.17-26.91 4.15-11.63-.85-27.3-13.7-43a132.5 132.5 0 0 0-26.83-24.1z"/>
  <path class="cls-1" d="M141.71 335.22h282.68v136.2H141.71z"/>
  <path class="cls-1" d="M491.07 255.31a68.63 68.63 0 0 1-3.43 25.56c-7.66-4.16-14.74-9.42-22.16-14.07 4.68-26.27-15.49-49.73-28-61.44-24-22.4-58.49-39.27-97.61-47.83 18.9 20.87 30.91 45.53 33.64 71.24H348.3c-2.51-18.15-11-36.13-25.12-52.37-22.23-25.64-55.15-43.65-92.69-50.71a181 181 0 0 0-33.37-3.15c-31 0-60.45 8.39-83 23.62-21.72 14.71-35.47 34.47-39.73 57.14-5 26.51 3.73 54.32 24.53 78.32A144.91 144.91 0 0 0 134 310.78a22.48 22.48 0 0 1 5.13-.6h24.73c-27.39-29.34-41-66.47-34.05-103.55q.89-4.74 2.2-9.31s8.83-2.28 9.14 0c9.13 66 37.76 92.26 37.76 92.26a140.34 140.34 0 0 0 22.36 20.61h16.52c3.4-7.43 6.38-16.41 8.87-31.77l13.44.41a150.66 150.66 0 0 0 3.36 31.36h51.39a144.42 144.42 0 0 0 2-25.62l11.13-4a136.16 136.16 0 0 0 11 29.59h46.33a134.67 134.67 0 0 0 14-30.11l19.4 6.25a141.72 141.72 0 0 0-5.37 23.86H427a22.43 22.43 0 0 1 22.43 22.43V348a159 159 0 0 0 20 1.32c31.94 0 56.34-10.56 62.17-26.91 4.15-11.63-.85-27.3-13.7-43a132.5 132.5 0 0 0-26.83-24.1z"/>
  <path class="cls-2" d="M480.64 220.08C459 180 405.95 145 339.37 131.88a278.45 278.45 0 0 0-36.28-4.72 199.29 199.29 0 0 0-68-26.05c-89-16.75-172 26.93-185.29 97.57-9.39 49.9 18.52 99.89 67.11 130.85a22.58 22.58 0 0 0-.22 3.13V474a22.43 22.43 0 0 0 22.43 22.43H427A22.43 22.43 0 0 0 449.38 474V370q.24 1.65.46 3.29c50.85 5.48 93.78-10.25 105.25-42.44 13.14-36.85-19.29-83.04-74.45-110.77zm-56.26 251.34H141.71v-136.2h282.67zm107.17-148.94c-5.83 16.35-30.23 26.91-62.17 26.91a159 159 0 0 1-20-1.32v-15.41A22.43 22.43 0 0 0 427 310.22h-33.5a141.72 141.72 0 0 1 5.37-23.86l-19.4-6.25a134.67 134.67 0 0 1-14 30.11h-46.39a136.16 136.16 0 0 1-11-29.59l-11.13 4a144.42 144.42 0 0 1-2 25.62h-51.47a150.66 150.66 0 0 1-3.36-31.36l-13.44-.41c-2.49 15.36-5.47 24.34-8.87 31.77h-16.53a140.34 140.34 0 0 1-22.36-20.61s-28.63-26.25-37.76-92.26c-.31-2.26-9.14 0-9.14 0q-1.3 4.57-2.2 9.31c-7 37.08 6.66 74.21 34.05 103.55h-24.73a22.48 22.48 0 0 0-5.13.6 144.91 144.91 0 0 1-35.09-29.16c-20.81-24-29.52-51.81-24.53-78.32 4.26-22.67 18-42.43 39.77-57.15 22.51-15.23 52-23.62 83-23.62a181 181 0 0 1 33.37 3.15c37.55 7.06 70.46 25.07 92.69 50.71 14.08 16.24 22.61 34.23 25.12 52.37h25.19c-2.73-25.71-14.74-50.37-33.64-71.24 39.12 8.56 73.63 25.43 97.61 47.83 12.54 11.71 32.71 35.18 28 61.44 7.42 4.65 14.5 9.92 22.16 14.07a68.63 68.63 0 0 0 3.43-25.56 132.5 132.5 0 0 1 26.78 24.19c12.83 15.63 17.83 31.29 13.68 42.93z"/>
</svg>
